<svg xmlns="http://www.w3.org/2000/svg" width="48" height="48" viewBox="0 0 48 48"><defs><style>.cls-1{fill:#335485;}.cls-2{fill:#fed049;}.cls-3{fill:#d0d7df;}.cls-4{fill:#f1f2f2;}.cls-5{fill:#474c54;}</style></defs><title>13-File</title><g id="_13-File" data-name="13-File"><path class="cls-1" d="M47,13H39a4,4,0,0,1-4-4V1Z"/><path class="cls-2" d="M47,13V43a4,4,0,0,1-4,4H9c-4,0-4-4-4-4V5A4,4,0,0,1,9,1H35V9a4,4,0,0,0,4,4h8Z"/><path class="cls-3" d="M29,27H22a3,3,0,0,1-3-3V17Z"/><path class="cls-4" d="M29,27V44a3,3,0,0,1-3,3H4a3,3,0,0,1-3-3V20a3,3,0,0,1,3-3H19v7a3,3,0,0,0,3,3h7Z"/><path class="cls-5" d="M47.707,12.293l-12-12a.975.975,0,0,0-.323-.216A.988.988,0,0,0,35,0H9A5.006,5.006,0,0,0,4,5v7a1,1,0,0,0,2,0V5A3,3,0,0,1,9,2H34V9a5.006,5.006,0,0,0,5,5h2a1,1,0,0,0,0-2H39a3,3,0,0,1-3-3V3.414l10,10V43a3,3,0,0,1-3,3H34a1,1,0,0,0,0,2h9a5.006,5.006,0,0,0,5-5V13A1,1,0,0,0,47.707,12.293Z"/><path class="cls-5" d="M19.708,16.294A1.009,1.009,0,0,0,19,16H4a4,4,0,0,0-4,4V44a4,4,0,0,0,4,4H26a4,4,0,0,0,4-4V27a1,1,0,0,0-.293-.707ZM28,44a2,2,0,0,1-2,2H4a2,2,0,0,1-2-2V20a2,2,0,0,1,2-2H18v6a4,4,0,0,0,4,4h1a1,1,0,0,0,0-2H22a2,2,0,0,1-2-2V19.414l8,8Z"/><path class="cls-5" d="M20,31H8a1,1,0,0,0,0,2H20a1,1,0,0,0,0-2Z"/><path class="cls-5" d="M20,36H8a1,1,0,0,0,0,2H20a1,1,0,0,0,0-2Z"/><path class="cls-5" d="M16,41H14a1,1,0,0,0,0,2h2a1,1,0,0,0,0-2Z"/><path class="cls-5" d="M10,41H8a1,1,0,0,0,0,2h2a1,1,0,0,0,0-2Z"/></g></svg>